<svg width="866" height="866" viewBox="0 0 866 866" fill="none" xmlns="http://www.w3.org/2000/svg">
<g clip-path="url(#clip0_104_87)">
<ellipse cx="441.518" cy="426.876" rx="415.149" ry="412.57" fill="#EB0F0F"/>
<path d="M77.0624 544.598C70.8738 530.638 65.1422 515.494 59.8678 499.164C37.1825 424.722 31.5955 352.28 43.107 281.838C57.1408 196.031 94.7456 139.567 155.921 112.446C182.198 100.797 207.466 95.7356 231.724 97.2631C235.567 83.7688 244.582 73.6311 258.77 66.8498C266.982 63.2094 272.387 61.5501 274.986 61.8717C295.189 59.7929 311.752 73.3289 324.676 102.48C329.954 114.386 339.278 140.958 352.646 182.193C391.612 304.439 417.374 379.727 429.934 408.057C438.306 426.943 450.034 442.869 465.116 455.833C487.533 475.371 508.185 480.954 527.071 472.581C530.766 470.943 534.485 468.803 538.227 466.162C549.452 458.238 562.92 440.968 578.631 414.351C593.932 387.917 608.357 371.697 621.906 365.69C627.244 363.324 633.606 362.714 640.992 363.861C656.539 366.794 667.316 375.035 673.322 388.584C681.556 410.48 675.167 439.841 654.156 476.667C628.443 519.507 594.647 550.211 552.769 568.777C500.854 591.301 451.112 582.157 403.543 541.346C400.89 550.874 397.415 560.766 393.119 571.022C369.4 627.225 336.601 664.61 294.722 683.176C268.445 694.825 242.655 698.153 217.351 693.159C162.414 681.16 115.651 631.64 77.0624 544.598ZM258.216 221.846C258.216 221.846 253.464 207.249 243.961 178.056C232.926 177.544 222.481 179.472 212.628 183.841C205.237 187.117 198.097 191.511 191.206 197.022C157.755 224.625 141.178 274.223 141.476 345.816C141.918 409.977 154.152 469.155 178.179 523.351C179.089 525.404 179.999 527.457 180.909 529.51C204.347 579.054 228.178 598.456 252.402 587.717C264.948 581.664 277.456 567.768 289.925 546.028C302.805 524.106 310.916 505.28 314.26 489.551C316.139 479.384 313.222 453.412 305.509 411.634C290.807 334.145 275.042 270.882 258.216 221.846Z" fill="#FFFDFD"/>
<path d="M441.295 627.08C435.466 613.748 430.073 599.279 425.117 583.672C403.984 512.908 398.967 443.757 410.068 376.22C423.429 293.559 459.141 239.052 517.204 212.699C532.791 205.624 548.651 200.775 564.784 198.152C622.737 189.705 664.401 214.497 689.774 272.528C691.66 276.841 693.437 281.438 695.105 286.32C714.181 340.631 710.088 395.354 682.824 450.491C656.168 504.883 614.977 544.724 559.252 570.017C548.731 574.792 537.976 578.499 526.987 581.137C528.779 587.372 531.99 595.783 536.619 606.37C546.562 629.112 558.174 644.988 571.454 653.998C589.005 665.299 614.747 664.893 648.68 652.78C663.099 646.236 676.636 638.212 689.294 628.708C711.272 611.683 734.217 584.587 758.129 547.419C773.608 523.006 785.829 508.766 794.792 504.698C799.858 502.398 805.804 501.579 812.631 502.24C828.358 504.03 839.308 511.983 845.48 526.098C847.537 530.804 848.792 536.343 849.244 542.717C849.866 572.979 828.846 611.42 786.182 658.039C746.729 701.321 708.493 731.364 671.473 748.166C657.444 754.534 643.876 759.283 630.767 762.413C551.771 780.411 488.613 735.3 441.295 627.08ZM530.691 317.243C505.687 357.256 497.712 415.386 506.766 491.633C517.537 489.563 527.403 486.495 536.366 482.427C568.71 467.747 592.59 444.925 608.007 413.962C625.294 379.8 627.337 347.623 614.136 317.431C600.935 287.24 584.701 276.281 565.435 284.555C551.968 291.138 540.386 302.034 530.691 317.243Z" fill="white" fill-opacity="0.71"/>
</g>
<defs>
<clipPath id="clip0_104_87">
<rect width="866" height="866" fill="white"/>
</clipPath>
</defs>
</svg>
